<svg width="724" height="713" viewBox="0 0 724 713" fill="none" xmlns="http://www.w3.org/2000/svg">
<rect width="723.196" height="713" rx="70" fill="#FAE606"/>
<circle cx="361.599" cy="356.5" r="321.542" fill="#E2E2EE"/>
<path d="M520.365 352.13H438.067L465.014 403.839L547.676 405.295L520.365 352.13Z" fill="#302926"/>
<path d="M470.113 250.897L384.902 248.712L411.121 305.883H498.152L470.113 250.897Z" fill="#302926"/>
<path d="M418.04 139.833L328.824 138.376L359.413 197.368L447.172 198.46L418.04 139.833Z" fill="#302926"/>
<path d="M312.074 140.926L272.746 214.119L325.547 314.26H312.074L280.029 379.442H360.141L374.343 406.025H447.901L312.074 140.926Z" fill="black"/>
<path d="M251.262 404.931H175.52L263.643 223.95L307.341 296.051L251.262 404.931Z" fill="#F5EF08"/>
<path d="M169.154 506.381H151.14L148.044 515.172H140.678L156.092 472.086H164.263L179.678 515.172H172.249L169.154 506.381ZM167.173 500.624L160.178 480.629L153.121 500.624H167.173ZM184.028 497.962C184.028 494.537 184.729 491.504 186.132 488.862C187.577 486.221 189.516 484.178 191.951 482.734C194.428 481.248 197.151 480.505 200.123 480.505C202.805 480.505 205.137 481.042 207.118 482.115C209.14 483.146 210.75 484.446 211.947 486.015V481.062H219.066V515.172H211.947V510.096C210.75 511.705 209.12 513.046 207.056 514.119C204.993 515.193 202.64 515.729 199.999 515.729C197.069 515.729 194.386 514.986 191.951 513.5C189.516 511.973 187.577 509.869 186.132 507.186C184.729 504.462 184.028 501.388 184.028 497.962ZM211.947 498.086C211.947 495.734 211.451 493.691 210.461 491.958C209.512 490.224 208.253 488.904 206.685 487.996C205.116 487.088 203.424 486.634 201.609 486.634C199.793 486.634 198.101 487.088 196.532 487.996C194.964 488.862 193.685 490.162 192.694 491.896C191.745 493.588 191.27 495.61 191.27 497.962C191.27 500.315 191.745 502.378 192.694 504.153C193.685 505.927 194.964 507.289 196.532 508.239C198.142 509.146 199.834 509.6 201.609 509.6C203.424 509.6 205.116 509.146 206.685 508.239C208.253 507.331 209.512 506.01 210.461 504.277C211.451 502.502 211.947 500.439 211.947 498.086ZM235.392 486.015C236.424 484.281 237.786 482.94 239.478 481.991C241.211 481 243.254 480.505 245.606 480.505V487.81H243.811C241.046 487.81 238.941 488.512 237.497 489.915C236.094 491.318 235.392 493.753 235.392 497.219V515.172H228.335V481.062H235.392V486.015ZM266.889 515.729C263.67 515.729 260.76 515.007 258.16 513.562C255.56 512.077 253.517 510.013 252.031 507.372C250.546 504.689 249.803 501.594 249.803 498.086C249.803 494.619 250.566 491.545 252.093 488.862C253.62 486.18 255.704 484.116 258.346 482.672C260.987 481.227 263.938 480.505 267.198 480.505C270.458 480.505 273.409 481.227 276.051 482.672C278.692 484.116 280.776 486.18 282.303 488.862C283.83 491.545 284.593 494.619 284.593 498.086C284.593 501.553 283.809 504.627 282.241 507.31C280.673 509.993 278.527 512.077 275.803 513.562C273.12 515.007 270.149 515.729 266.889 515.729ZM266.889 509.6C268.705 509.6 270.397 509.167 271.965 508.3C273.574 507.434 274.874 506.134 275.865 504.4C276.855 502.667 277.351 500.562 277.351 498.086C277.351 495.61 276.876 493.526 275.927 491.834C274.978 490.1 273.719 488.8 272.151 487.934C270.582 487.067 268.89 486.634 267.074 486.634C265.258 486.634 263.566 487.067 261.998 487.934C260.471 488.8 259.254 490.1 258.346 491.834C257.438 493.526 256.984 495.61 256.984 498.086C256.984 501.759 257.912 504.607 259.77 506.629C261.668 508.61 264.041 509.6 266.889 509.6ZM309.213 480.505C311.813 480.505 314.124 481.062 316.146 482.177C318.21 483.291 319.819 484.942 320.975 487.129C322.171 489.316 322.77 491.958 322.77 495.053V515.172H315.775V496.105C315.775 493.051 315.011 490.719 313.484 489.11C311.957 487.459 309.873 486.634 307.232 486.634C304.59 486.634 302.486 487.459 300.917 489.11C299.39 490.719 298.627 493.051 298.627 496.105V515.172H291.57V469.362H298.627V485.024C299.824 483.58 301.33 482.465 303.146 481.681C305.003 480.897 307.025 480.505 309.213 480.505ZM335.362 476.543C334.083 476.543 333.01 476.11 332.143 475.243C331.276 474.377 330.843 473.304 330.843 472.024C330.843 470.745 331.276 469.672 332.143 468.805C333.01 467.938 334.083 467.505 335.362 467.505C336.6 467.505 337.653 467.938 338.519 468.805C339.386 469.672 339.819 470.745 339.819 472.024C339.819 473.304 339.386 474.377 338.519 475.243C337.653 476.11 336.6 476.543 335.362 476.543ZM338.829 481.062V515.172H331.772V481.062H338.829ZM371.232 477.843V490.472H386.089V496.229H371.232V509.415H387.946V515.172H364.175V472.086H387.946V477.843H371.232ZM411.248 497.9L422.267 515.172H414.282L406.915 503.596L399.982 515.172H392.615L403.634 498.396L392.615 481.062H400.601L407.967 492.639L414.901 481.062H422.267L411.248 497.9ZM434.588 486.077C435.785 484.508 437.415 483.188 439.478 482.115C441.542 481.042 443.874 480.505 446.474 480.505C449.445 480.505 452.148 481.248 454.583 482.734C457.059 484.178 458.999 486.221 460.402 488.862C461.805 491.504 462.507 494.537 462.507 497.962C462.507 501.388 461.805 504.462 460.402 507.186C458.999 509.869 457.059 511.973 454.583 513.5C452.148 514.986 449.445 515.729 446.474 515.729C443.874 515.729 441.563 515.213 439.54 514.181C437.518 513.108 435.867 511.788 434.588 510.219V531.391H427.531V481.062H434.588V486.077ZM455.326 497.962C455.326 495.61 454.831 493.588 453.84 491.896C452.891 490.162 451.612 488.862 450.002 487.996C448.434 487.088 446.742 486.634 444.926 486.634C443.151 486.634 441.459 487.088 439.85 487.996C438.282 488.904 437.002 490.224 436.012 491.958C435.062 493.691 434.588 495.734 434.588 498.086C434.588 500.439 435.062 502.502 436.012 504.277C437.002 506.01 438.282 507.331 439.85 508.239C441.459 509.146 443.151 509.6 444.926 509.6C446.742 509.6 448.434 509.146 450.002 508.239C451.612 507.289 452.891 505.927 453.84 504.153C454.831 502.378 455.326 500.315 455.326 497.962ZM484.281 515.729C481.062 515.729 478.152 515.007 475.552 513.562C472.952 512.077 470.91 510.013 469.424 507.372C467.938 504.689 467.195 501.594 467.195 498.086C467.195 494.619 467.959 491.545 469.486 488.862C471.013 486.18 473.097 484.116 475.738 482.672C478.379 481.227 481.33 480.505 484.591 480.505C487.851 480.505 490.802 481.227 493.443 482.672C496.084 484.116 498.168 486.18 499.695 488.862C501.222 491.545 501.986 494.619 501.986 498.086C501.986 501.553 501.202 504.627 499.633 507.31C498.065 509.993 495.919 512.077 493.195 513.562C490.513 515.007 487.541 515.729 484.281 515.729ZM484.281 509.6C486.097 509.6 487.789 509.167 489.357 508.3C490.967 507.434 492.267 506.134 493.257 504.4C494.248 502.667 494.743 500.562 494.743 498.086C494.743 495.61 494.268 493.526 493.319 491.834C492.37 490.1 491.111 488.8 489.543 487.934C487.975 487.067 486.283 486.634 484.467 486.634C482.651 486.634 480.959 487.067 479.391 487.934C477.864 488.8 476.646 490.1 475.738 491.834C474.83 493.526 474.376 495.61 474.376 498.086C474.376 501.759 475.305 504.607 477.162 506.629C479.06 508.61 481.433 509.6 484.281 509.6ZM516.019 486.015C517.051 484.281 518.413 482.94 520.105 481.991C521.838 481 523.881 480.505 526.234 480.505V487.81H524.438C521.673 487.81 519.569 488.512 518.124 489.915C516.721 491.318 516.019 493.753 516.019 497.219V515.172H508.962V481.062H516.019V486.015ZM540.954 486.819V505.7C540.954 506.98 541.243 507.908 541.821 508.486C542.44 509.023 543.471 509.291 544.916 509.291H549.249V515.172H543.678C540.5 515.172 538.065 514.429 536.373 512.943C534.681 511.458 533.835 509.043 533.835 505.7V486.819H529.811V481.062H533.835V472.581H540.954V481.062H549.249V486.819H540.954ZM568.135 515.729C565.452 515.729 563.038 515.254 560.892 514.305C558.787 513.315 557.115 511.994 555.877 510.343C554.639 508.651 553.979 506.773 553.896 504.71H561.201C561.325 506.154 562.006 507.372 563.244 508.362C564.523 509.312 566.112 509.786 568.011 509.786C569.992 509.786 571.519 509.415 572.592 508.672C573.706 507.888 574.263 506.897 574.263 505.7C574.263 504.421 573.644 503.472 572.406 502.853C571.209 502.234 569.29 501.553 566.649 500.81C564.09 500.108 562.006 499.427 560.396 498.767C558.787 498.107 557.384 497.096 556.187 495.734C555.031 494.372 554.454 492.577 554.454 490.348C554.454 488.532 554.99 486.881 556.063 485.396C557.136 483.869 558.663 482.672 560.644 481.805C562.666 480.938 564.977 480.505 567.577 480.505C571.457 480.505 574.573 481.496 576.925 483.477C579.319 485.416 580.598 488.078 580.763 491.462H573.706C573.582 489.935 572.963 488.718 571.849 487.81C570.735 486.902 569.228 486.448 567.33 486.448C565.473 486.448 564.049 486.799 563.058 487.5C562.068 488.202 561.573 489.131 561.573 490.286C561.573 491.194 561.903 491.958 562.563 492.577C563.223 493.196 564.028 493.691 564.977 494.062C565.927 494.392 567.33 494.826 569.187 495.362C571.663 496.023 573.685 496.704 575.254 497.405C576.863 498.066 578.246 499.056 579.401 500.377C580.557 501.697 581.155 503.451 581.196 505.639C581.196 507.578 580.66 509.312 579.587 510.839C578.514 512.366 576.987 513.562 575.006 514.429C573.066 515.296 570.776 515.729 568.135 515.729Z" fill="black"/>
</svg>
